<?xml version="1.0" encoding="utf-8"?>
<!-- Generator: Adobe Illustrator 23.0.3, SVG Export Plug-In . SVG Version: 6.00 Build 0)  -->
<svg version="1.1" id="Layer_1" xmlns="http://www.w3.org/2000/svg" xmlns:xlink="http://www.w3.org/1999/xlink" x="0px" y="0px"
	 viewBox="0 0 77.2 43.3" style="enable-background:new 0 0 77.2 43.3;" xml:space="preserve">
<style type="text/css">
	.st0{fill:#FFFFFF;}
</style>
<g>
	<g>
		<path class="st0" d="M2.1,33.3h3.7v-1.3c0-0.3,0-0.5-0.1-0.7C5.6,31.2,5.5,31,5.3,31h2.2c-0.2,0.1-0.3,0.2-0.4,0.4
			C7.1,31.5,7,31.8,7,32.1V36c0,0.3,0,0.5,0.1,0.7c0.1,0.2,0.2,0.3,0.4,0.4H5.3c0.2-0.1,0.3-0.2,0.4-0.4c0.1-0.2,0.1-0.4,0.1-0.7
			v-1.7H2.1V36c0,0.3,0,0.5,0.1,0.7c0.1,0.2,0.2,0.3,0.4,0.4H0.4c0.2-0.1,0.3-0.2,0.4-0.4c0.1-0.2,0.1-0.4,0.1-0.7v-3.9
			c0-0.3,0-0.5-0.1-0.7C0.7,31.2,0.5,31,0.4,31h2.2c-0.2,0.1-0.3,0.2-0.4,0.4c-0.1,0.2-0.1,0.4-0.1,0.7V33.3z"/>
		<path class="st0" d="M11.8,31.7c-0.7,0-1.3,0.2-1.7,0.6c-0.4,0.4-0.6,1-0.6,1.7c0,0.7,0.2,1.2,0.6,1.6c0.4,0.4,0.9,0.6,1.6,0.6
			c0.7,0,1.3-0.2,1.7-0.6c0.4-0.4,0.6-1,0.6-1.7s-0.2-1.3-0.6-1.7C13.1,31.9,12.5,31.7,11.8,31.7 M8.2,34.1c0-1,0.3-1.8,1-2.4
			c0.7-0.6,1.5-0.9,2.7-0.9c1.1,0,1.9,0.3,2.6,0.9c0.6,0.6,0.9,1.3,0.9,2.3c0,1-0.3,1.8-1,2.4c-0.7,0.6-1.5,0.9-2.7,0.9
			c-1.1,0-1.9-0.3-2.6-0.9C8.5,35.8,8.2,35,8.2,34.1"/>
		<path class="st0" d="M17.9,37.1c0.2-0.1,0.3-0.2,0.4-0.4c0.1-0.1,0.1-0.4,0.1-0.7v-4.2h-0.4c-0.5,0-1,0-1.3,0.1
			c-0.4,0.1-0.7,0.2-0.9,0.3c0-0.2,0.1-0.3,0.2-0.6c0.1-0.2,0.1-0.4,0.1-0.4c0,0,0-0.1-0.1-0.3l0,0l6.2,0l0,0c0,0.2-0.1,0.3-0.1,0.3
			c0,0.1,0,0.2,0.1,0.4c0.1,0.2,0.1,0.4,0.2,0.6c-0.3-0.2-0.6-0.3-0.9-0.3s-0.8-0.1-1.3-0.1h-0.5V36c0,0.3,0,0.5,0.1,0.7
			c0.1,0.2,0.2,0.3,0.4,0.4H17.9z"/>
		<path class="st0" d="M22.5,37.1c0.2-0.1,0.3-0.2,0.4-0.4c0.1-0.2,0.1-0.4,0.1-0.7v-4c0-0.3,0-0.5-0.1-0.7
			c-0.1-0.2-0.2-0.3-0.4-0.4h6.3c0,0.1-0.1,0.2-0.1,0.2c0,0,0,0.1,0,0.1c0,0.1,0,0.2,0.1,0.4c0.1,0.2,0.1,0.4,0.2,0.6
			c-0.3-0.2-0.6-0.3-0.9-0.3c-0.4-0.1-0.8-0.1-1.3-0.1h-2.6v1.6h2.9c0.1,0,0.3,0,0.4,0c0.1,0,0.3-0.1,0.4-0.1L27.5,34
			c-0.1,0.1-0.1,0.2-0.2,0.2c-0.1,0.1-0.2,0.1-0.4,0.1h-2.7v1.9h2.7c0.5,0,1-0.1,1.4-0.2c0.4-0.1,0.8-0.3,1-0.4
			c-0.1,0.1-0.1,0.3-0.2,0.6c-0.1,0.3-0.2,0.4-0.2,0.5c0,0.1,0,0.1,0,0.2c0,0.1,0,0.1,0,0.2H22.5z"/>
		<path class="st0" d="M30.2,32c0-0.3,0-0.5-0.1-0.7C30,31.2,29.9,31,29.7,31h2.2c-0.2,0.1-0.3,0.2-0.4,0.4
			c-0.1,0.2-0.1,0.4-0.1,0.7v4.2h1.9c0.5,0,1-0.1,1.4-0.2c0.4-0.1,0.7-0.3,1-0.5c-0.1,0.1-0.1,0.3-0.2,0.6c-0.1,0.3-0.2,0.4-0.2,0.5
			c0,0,0,0.1,0,0.2c0,0.1,0,0.1,0,0.2h-5.7c0.2-0.1,0.3-0.2,0.4-0.4c0.1-0.2,0.1-0.4,0.1-0.7V32z"/>
		<path class="st0" d="M41,34h1.4c0.7,0,1.2-0.1,1.4-0.3c0.3-0.2,0.4-0.5,0.4-0.9c0-0.4-0.1-0.7-0.4-0.8c-0.3-0.2-0.8-0.2-1.5-0.2
			H41V34z M41,36c0,0.3,0,0.5,0.1,0.7c0.1,0.2,0.2,0.3,0.4,0.4h-2.2c0.2-0.1,0.3-0.2,0.4-0.4c0.1-0.2,0.1-0.4,0.1-0.7v-4
			c0-0.3,0-0.5-0.1-0.7c-0.1-0.2-0.2-0.3-0.4-0.4h3.2c0.7,0,1.2,0,1.5,0.1c0.3,0.1,0.6,0.2,0.8,0.3c0.3,0.2,0.5,0.4,0.6,0.6
			c0.1,0.3,0.2,0.5,0.2,0.9c0,0.7-0.3,1.2-0.8,1.6c-0.5,0.3-1.3,0.5-2.3,0.5H41V36z"/>
		<path class="st0" d="M47.2,34.8h3.1l-1.6-3.1L47.2,34.8z M52.1,36c0.1,0.2,0.2,0.4,0.3,0.6c0.1,0.2,0.2,0.3,0.4,0.5h-2
			c0.1-0.1,0.1-0.2,0.2-0.2c0-0.1,0.1-0.2,0.1-0.2c0-0.1,0-0.1,0-0.2c0-0.1,0-0.1-0.1-0.2l-0.2-0.5h-3.9l-0.2,0.4
			c0,0.1,0,0.1-0.1,0.2c0,0.1,0,0.1,0,0.2c0,0.1,0,0.2,0.1,0.3c0,0.1,0.1,0.2,0.2,0.2h-2c0.1-0.1,0.3-0.3,0.4-0.5
			c0.1-0.2,0.2-0.4,0.3-0.6l2.3-4.6c0-0.1,0.1-0.1,0.1-0.2c0,0,0-0.1,0-0.1c0,0,0,0,0-0.1c0,0,0-0.1-0.1-0.1l2.1,0
			c0,0.1,0,0.1-0.1,0.1c0,0,0,0.1,0,0.1c0,0,0,0.1,0,0.1c0,0,0,0.1,0.1,0.1L52.1,36z"/>
		<path class="st0" d="M54.2,37.1c0.2-0.1,0.3-0.2,0.4-0.4c0.1-0.1,0.1-0.4,0.1-0.7v-4.2h-0.4c-0.5,0-1,0-1.3,0.1
			c-0.4,0.1-0.7,0.2-0.9,0.3c0-0.2,0.1-0.3,0.2-0.6c0.1-0.2,0.1-0.4,0.1-0.4c0,0,0-0.1-0.1-0.3l0,0l6.2,0l0,0c0,0.2-0.1,0.3-0.1,0.3
			c0,0.1,0,0.2,0.1,0.4c0.1,0.2,0.1,0.4,0.2,0.6c-0.3-0.2-0.6-0.3-0.9-0.3c-0.4-0.1-0.8-0.1-1.3-0.1h-0.5V36c0,0.3,0,0.5,0.1,0.7
			c0.1,0.2,0.2,0.3,0.4,0.4H54.2z"/>
		<path class="st0" d="M60.5,33.8h2c0.6,0,1-0.1,1.3-0.2c0.2-0.2,0.4-0.4,0.4-0.7c0-0.4-0.1-0.6-0.3-0.8c-0.2-0.1-0.6-0.2-1.3-0.2
			h-2V33.8z M60.5,36c0,0.3,0,0.5,0.1,0.7c0.1,0.2,0.2,0.3,0.4,0.4h-2.2c0.2-0.1,0.3-0.2,0.4-0.4c0.1-0.2,0.1-0.4,0.1-0.7v-4
			c0-0.3,0-0.5-0.1-0.7C59.1,31.2,59,31,58.8,31h3.7c0.6,0,1,0,1.3,0.1c0.3,0,0.5,0.1,0.7,0.2c0.3,0.1,0.5,0.3,0.7,0.6
			c0.2,0.3,0.2,0.6,0.2,0.9c0,0.4-0.2,0.8-0.5,1.1c-0.3,0.3-0.7,0.5-1.3,0.6c0.2,0.1,0.4,0.2,0.6,0.4c0.2,0.2,0.4,0.4,0.6,0.8
			c0.1,0.1,0.1,0.2,0.2,0.4c0.3,0.6,0.6,0.9,0.9,1.1h-2.2c0,0,0.1-0.1,0.1-0.1c0,0,0-0.1,0-0.2c0-0.2-0.1-0.4-0.2-0.6
			c-0.1-0.2-0.2-0.4-0.4-0.7c-0.3-0.3-0.5-0.6-0.8-0.7c-0.3-0.1-0.6-0.2-1-0.2h-1.1V36z"/>
		<path class="st0" d="M68.6,31c-0.2,0.1-0.3,0.2-0.4,0.4c-0.1,0.2-0.1,0.4-0.1,0.7V36c0,0.3,0,0.5,0.1,0.7c0.1,0.2,0.2,0.3,0.4,0.4
			h-2.2c0.2-0.1,0.3-0.2,0.4-0.4c0.1-0.2,0.1-0.4,0.1-0.7v-3.9c0-0.3,0-0.5-0.1-0.7c-0.1-0.2-0.2-0.3-0.4-0.4H68.6z"/>
		<path class="st0" d="M71.1,34.8h3.1l-1.6-3.1L71.1,34.8z M76,36c0.1,0.2,0.2,0.4,0.3,0.6c0.1,0.2,0.2,0.3,0.4,0.5h-2
			c0.1-0.1,0.1-0.2,0.2-0.2c0-0.1,0.1-0.2,0.1-0.2c0-0.1,0-0.1,0-0.2c0-0.1,0-0.1-0.1-0.2l-0.2-0.5h-3.9l-0.2,0.4
			c0,0.1-0.1,0.1-0.1,0.2c0,0.1,0,0.1,0,0.2c0,0.1,0,0.2,0.1,0.3c0,0.1,0.1,0.2,0.2,0.2h-2c0.1-0.1,0.3-0.3,0.4-0.5
			c0.1-0.2,0.2-0.4,0.3-0.6l2.3-4.6c0-0.1,0.1-0.1,0.1-0.2c0,0,0-0.1,0-0.1c0,0,0,0,0-0.1c0,0,0-0.1-0.1-0.1l2.1,0
			c0,0.1,0,0.1-0.1,0.1c0,0,0,0.1,0,0.1c0,0,0,0.1,0,0.1c0,0,0,0.1,0.1,0.1L76,36z"/>
		<path class="st0" d="M15.3,39.5L15.3,39.5l-0.9-0.6l0.1-0.2l0.7,0.4l0.8-0.4l0.1,0.2L15.3,39.5z M15.3,42.5c0.1,0,0.1,0,0.2,0
			c0.1,0,0.1,0,0.2-0.1c0,0,0.1-0.1,0.1-0.1c0,0,0-0.1,0-0.2c0-0.1,0-0.1-0.1-0.2c0-0.1-0.1-0.1-0.2-0.1c-0.1,0-0.1-0.1-0.2-0.1
			c-0.1,0-0.2-0.1-0.2-0.1c-0.1-0.1-0.3-0.1-0.4-0.2c-0.1-0.1-0.2-0.1-0.3-0.2c-0.1-0.1-0.1-0.2-0.2-0.3c0-0.1-0.1-0.2-0.1-0.4
			c0-0.1,0-0.1,0-0.2c0-0.1,0-0.1,0.1-0.2c0-0.1,0.1-0.1,0.1-0.2c0.1-0.1,0.1-0.1,0.2-0.1c0.1,0,0.2-0.1,0.3-0.1c0.1,0,0.2,0,0.3,0
			c0.1,0,0.1,0,0.2,0c0.1,0,0.1,0,0.2,0c0.1,0,0.1,0,0.2,0.1c0.1,0,0.1,0.1,0.2,0.1h0l0-0.2h0.3v1h-0.3c0-0.2-0.1-0.4-0.2-0.5
			c-0.1-0.1-0.3-0.2-0.5-0.2c-0.1,0-0.1,0-0.2,0c-0.1,0-0.1,0-0.1,0.1c0,0-0.1,0.1-0.1,0.1c0,0,0,0.1,0,0.1c0,0.1,0,0.1,0,0.2
			c0,0.1,0.1,0.1,0.1,0.1c0.1,0,0.1,0.1,0.2,0.1c0.1,0,0.2,0.1,0.3,0.1c0.1,0,0.1,0.1,0.2,0.1c0.1,0,0.1,0.1,0.2,0.1
			c0.1,0,0.1,0.1,0.2,0.1c0.1,0.1,0.1,0.1,0.2,0.2c0,0.1,0.1,0.1,0.1,0.2c0,0.1,0,0.2,0,0.2c0,0.1,0,0.2-0.1,0.3
			c-0.1,0.1-0.1,0.2-0.2,0.3c-0.1,0.1-0.2,0.1-0.3,0.2c-0.1,0-0.3,0.1-0.4,0.1c-0.1,0-0.1,0-0.2,0c-0.1,0-0.1,0-0.2,0
			c-0.1,0-0.1,0-0.2-0.1c-0.1,0-0.1-0.1-0.2-0.1h0l0,0.2h-0.3v-1h0.3c0,0.1,0.1,0.2,0.1,0.3c0,0.1,0.1,0.2,0.2,0.2
			c0.1,0.1,0.1,0.1,0.2,0.1C15.1,42.4,15.2,42.5,15.3,42.5"/>
		<path class="st0" d="M20.3,39.8l0,0.9h-0.3c0-0.2,0-0.4-0.1-0.5c-0.1-0.1-0.2-0.2-0.4-0.2l-0.2,0V42c0,0,0,0.1,0,0.1s0,0.1,0,0.1
			c0,0,0,0.1,0,0.1c0,0,0,0,0,0.1l0.3,0v0.3h-1.2v-0.3c0,0,0.1,0,0.1,0c0,0,0.1,0,0.1,0c0,0,0-0.1,0.1-0.1c0,0,0-0.1,0-0.2v-2h-0.2
			c-0.2,0-0.3,0.1-0.4,0.2c-0.1,0.1-0.1,0.3-0.1,0.5h-0.3l0-0.9H20.3z"/>
		<path class="st0" d="M22.9,41.3c0.1,0,0.2,0,0.3,0c0.1,0,0.1-0.1,0.2-0.1s0.1-0.1,0.1-0.2c0-0.1,0-0.2,0-0.3c0-0.1,0-0.2,0-0.2
			c0-0.1,0-0.1-0.1-0.2c0,0-0.1-0.1-0.1-0.1c0,0-0.1,0-0.1-0.1c0,0-0.1,0-0.1,0c0,0-0.1,0-0.1,0c0,0-0.1,0-0.1,0c0,0-0.1,0-0.1,0
			c0,0,0,0.1-0.1,0.1c0,0,0,0.1,0,0.2v0.8c0,0,0.1,0,0.1,0C22.9,41.3,22.9,41.3,22.9,41.3 M24,42c0,0.1,0.1,0.1,0.1,0.2
			c0,0,0.1,0.1,0.1,0.1c0,0,0.1,0.1,0.1,0.1c0,0,0.1,0,0.1,0v0.3h-0.7c0,0-0.1-0.1-0.1-0.2c-0.1-0.1-0.1-0.1-0.2-0.2l-0.3-0.5
			c0-0.1-0.1-0.1-0.1-0.1c0,0-0.1-0.1-0.1-0.1c0,0,0,0-0.1,0h-0.1h-0.1c0,0,0,0-0.1,0V42c0,0.1,0,0.1,0,0.2c0,0.1,0,0.1,0,0.2l0.4,0
			v0.3h-1.2v-0.3c0,0,0.1,0,0.1,0c0,0,0.1,0,0.1,0c0,0,0-0.1,0.1-0.1c0,0,0-0.1,0-0.2v-1.6c0,0,0-0.1,0-0.1c0,0,0-0.1,0-0.1
			c0,0,0-0.1,0-0.1c0,0,0,0,0-0.1l-0.3,0v-0.3l1.2,0c0.2,0,0.3,0,0.5,0c0.1,0,0.3,0.1,0.4,0.1c0.1,0.1,0.2,0.2,0.2,0.3
			c0.1,0.1,0.1,0.2,0.1,0.4c0,0.1,0,0.2,0,0.3c0,0.1-0.1,0.2-0.1,0.2c-0.1,0.1-0.1,0.1-0.2,0.2c-0.1,0.1-0.2,0.1-0.3,0.1v0
			c0.1,0,0.1,0.1,0.2,0.1c0.1,0,0.1,0.1,0.1,0.2L24,42z"/>
		<path class="st0" d="M27,41.1c0.1,0,0.2,0,0.2,0c0.1,0,0.1-0.1,0.1-0.1c0-0.1,0.1-0.1,0.1-0.2c0-0.1,0-0.1,0-0.2
			c0-0.1,0-0.2,0-0.2c0-0.1-0.1-0.1-0.1-0.1c0,0-0.1-0.1-0.1-0.1c-0.1,0-0.1,0-0.2,0c0,0-0.1,0-0.1,0c0,0-0.1,0-0.1,0
			c0,0,0,0.1-0.1,0.1c0,0,0,0.1,0,0.2v0.6L27,41.1z M26.8,42.4c0.1,0,0.1,0,0.2,0c0.1,0,0.1,0,0.2,0c0.1,0,0.2,0,0.2,0
			c0.1,0,0.1-0.1,0.1-0.1c0,0,0.1-0.1,0.1-0.2c0-0.1,0-0.1,0-0.2c0-0.1,0-0.2,0-0.2c0-0.1-0.1-0.1-0.1-0.2c-0.1,0-0.1-0.1-0.2-0.1
			c-0.1,0-0.1,0-0.2,0c-0.1,0-0.2,0-0.3,0V42c0,0,0,0.1,0,0.1c0,0,0,0.1,0,0.1C26.8,42.3,26.8,42.3,26.8,42.4
			C26.8,42.4,26.8,42.4,26.8,42.4 M25.9,42.4c0,0,0.1,0,0.1,0c0,0,0.1,0,0.1,0c0,0,0-0.1,0.1-0.1c0,0,0-0.1,0-0.2v-1.6
			c0,0,0-0.1,0-0.1c0,0,0-0.1,0-0.1c0,0,0-0.1,0-0.1c0,0,0,0,0-0.1l-0.3,0v-0.3l1.1,0c0.2,0,0.3,0,0.4,0c0.1,0,0.2,0.1,0.3,0.1
			c0.1,0.1,0.2,0.1,0.2,0.2c0.1,0.1,0.1,0.2,0.1,0.3c0,0.1,0,0.1,0,0.2c0,0.1-0.1,0.1-0.1,0.2c-0.1,0.1-0.1,0.1-0.2,0.2
			c-0.1,0-0.2,0.1-0.3,0.1v0c0.1,0,0.3,0.1,0.4,0.1c0.1,0,0.2,0.1,0.2,0.2c0.1,0.1,0.1,0.1,0.1,0.2c0,0.1,0.1,0.2,0.1,0.2
			c0,0.1,0,0.3-0.1,0.4c-0.1,0.1-0.1,0.2-0.2,0.3c-0.1,0.1-0.2,0.1-0.3,0.2c-0.1,0-0.3,0.1-0.4,0.1h-1.4V42.4z"/>
		<path class="st0" d="M31,42.5c0.1,0,0.1,0,0.2,0c0.1,0,0.1,0,0.2-0.1c0,0,0.1-0.1,0.1-0.1c0,0,0-0.1,0-0.2c0-0.1,0-0.1-0.1-0.2
			c0-0.1-0.1-0.1-0.2-0.1c-0.1,0-0.1-0.1-0.2-0.1c-0.1,0-0.2-0.1-0.2-0.1c-0.1-0.1-0.3-0.1-0.4-0.2c-0.1-0.1-0.2-0.1-0.3-0.2
			C30.1,41.1,30,41,30,40.9c0-0.1-0.1-0.2-0.1-0.4c0-0.1,0-0.1,0-0.2c0-0.1,0-0.1,0.1-0.2c0-0.1,0.1-0.1,0.1-0.2
			c0-0.1,0.1-0.1,0.2-0.1c0.1,0,0.2-0.1,0.3-0.1c0.1,0,0.2,0,0.3,0c0.1,0,0.1,0,0.2,0c0.1,0,0.1,0,0.2,0c0.1,0,0.1,0,0.2,0.1
			c0.1,0,0.1,0.1,0.2,0.1h0l0-0.2h0.3v1h-0.3c0-0.2-0.1-0.4-0.2-0.5c-0.1-0.1-0.3-0.2-0.5-0.2c-0.1,0-0.1,0-0.2,0
			c-0.1,0-0.1,0-0.1,0.1c0,0-0.1,0.1-0.1,0.1c0,0,0,0.1,0,0.1c0,0.1,0,0.1,0,0.2c0,0.1,0.1,0.1,0.1,0.1c0.1,0,0.1,0.1,0.2,0.1
			c0.1,0,0.2,0.1,0.3,0.1c0.1,0,0.1,0.1,0.2,0.1c0.1,0,0.1,0.1,0.2,0.1c0.1,0,0.1,0.1,0.2,0.1c0.1,0.1,0.1,0.1,0.2,0.2
			c0,0.1,0.1,0.1,0.1,0.2c0,0.1,0,0.2,0,0.2c0,0.1,0,0.2-0.1,0.3c-0.1,0.1-0.1,0.2-0.2,0.3c-0.1,0.1-0.2,0.1-0.3,0.2
			c-0.1,0-0.3,0.1-0.4,0.1c-0.1,0-0.1,0-0.2,0c-0.1,0-0.1,0-0.2,0c-0.1,0-0.1,0-0.2-0.1c-0.1,0-0.1-0.1-0.2-0.1h0l0,0.2h-0.3v-1h0.3
			c0,0.1,0.1,0.2,0.1,0.3c0,0.1,0.1,0.2,0.2,0.2c0.1,0.1,0.1,0.1,0.2,0.1C30.8,42.4,30.9,42.5,31,42.5"/>
		<path class="st0" d="M34.5,41.1h0.3l0.3-0.5c0,0,0.1-0.1,0.1-0.1c0,0,0.1-0.1,0.1-0.1c0,0,0.1-0.1,0.1-0.1c0,0,0-0.1,0.1-0.1v0
			l-0.3,0v-0.3h1v0.3c0,0-0.1,0-0.1,0c-0.1,0-0.1,0-0.2,0.1c-0.1,0-0.1,0.1-0.2,0.1c-0.1,0.1-0.1,0.1-0.2,0.2l-0.4,0.6v0
			c0.1,0,0.1,0.1,0.1,0.1c0,0,0.1,0.1,0.1,0.1l0.4,0.6c0,0.1,0.1,0.1,0.1,0.2c0,0.1,0.1,0.1,0.1,0.1c0,0,0.1,0.1,0.1,0.1
			c0,0,0.1,0,0.1,0v0.3h-0.6c0,0,0,0-0.1,0c0,0-0.1-0.1-0.1-0.1c0,0-0.1-0.1-0.1-0.1c0,0-0.1-0.1-0.1-0.1l-0.4-0.6
			c0,0,0-0.1-0.1-0.1c0,0,0-0.1-0.1-0.1c0,0,0,0-0.1-0.1c0,0,0,0-0.1-0.1l-0.1,0V42c0,0,0,0.1,0,0.1c0,0,0,0.1,0,0.1
			c0,0,0,0.1,0,0.1c0,0,0,0,0,0.1l0.3,0v0.3h-1.2v-0.3c0,0,0.1,0,0.1,0c0,0,0.1,0,0.1,0c0,0,0-0.1,0.1-0.1c0,0,0-0.1,0-0.2v-1.6
			c0,0,0-0.1,0-0.1c0,0,0-0.1,0-0.1c0,0,0-0.1,0-0.1c0,0,0-0.1,0-0.1l-0.3,0v-0.3h1.2v0.3c0,0-0.1,0-0.1,0c0,0-0.1,0-0.1,0
			c0,0,0,0.1-0.1,0.1c0,0,0,0.1,0,0.2V41.1z"/>
		<path class="st0" d="M38.7,39.5l-0.1-0.2l0.5-0.5c0,0,0.1-0.1,0.1-0.1c0,0,0.1,0,0.1,0c0,0,0.1,0,0.1,0c0,0,0,0,0.1,0
			c0,0,0,0,0,0.1c0,0,0,0.1,0,0.1c0,0.1,0,0.1,0,0.1c0,0-0.1,0.1-0.1,0.1L38.7,39.5z M38.7,41.3V42c0,0,0,0.1,0,0.1c0,0,0,0.1,0,0.1
			c0,0,0,0.1,0,0.1c0,0,0,0,0,0.1l0.6,0c0.1,0,0.1,0,0.2,0c0.1,0,0.1-0.1,0.2-0.1c0,0,0.1-0.1,0.1-0.2c0-0.1,0-0.2,0-0.3H40l0,0.9
			h-2.2v-0.3c0,0,0.1,0,0.1,0c0,0,0.1,0,0.1,0c0,0,0-0.1,0.1-0.1c0,0,0-0.1,0-0.2v-1.6c0,0,0-0.1,0-0.1c0,0,0-0.1,0-0.1
			c0,0,0-0.1,0-0.1c0,0,0,0,0-0.1l-0.3,0v-0.3h2.1l0,0.8h-0.3c0-0.1,0-0.2,0-0.3c0-0.1-0.1-0.1-0.1-0.2c0,0-0.1-0.1-0.2-0.1
			c-0.1,0-0.1,0-0.2,0l-0.1,0c0,0-0.1,0-0.1,0c0,0-0.1,0-0.1,0c0,0,0,0.1-0.1,0.1c0,0,0,0.1,0,0.2v0.6h0.5l0-0.4h0.3v1h-0.3
			c0-0.1,0-0.2,0-0.2c0,0-0.1-0.1-0.1-0.1c0,0-0.1,0-0.1,0c0,0-0.1,0-0.2,0L38.7,41.3z"/>
		<path class="st0" d="M45,41.4c0.1,0,0.2,0,0.3,0c0.1,0,0.1-0.1,0.2-0.1c0.1-0.1,0.1-0.1,0.1-0.2c0-0.1,0-0.2,0-0.3
			c0-0.1,0-0.2,0-0.2c0-0.1,0-0.1-0.1-0.2c0,0-0.1-0.1-0.1-0.1c0,0-0.1,0-0.1-0.1c0,0-0.1,0-0.1,0c0,0-0.1,0-0.1,0c0,0-0.1,0-0.1,0
			c0,0-0.1,0-0.1,0c0,0,0,0.1-0.1,0.1c0,0,0,0.1,0,0.2v0.9C44.9,41.3,44.9,41.3,45,41.4C45,41.4,45,41.4,45,41.4 M45.2,41.6
			C45.1,41.7,45.1,41.7,45.2,41.6c-0.1,0-0.1,0-0.2,0h-0.1c0,0,0,0-0.1,0V42c0,0.1,0,0.1,0,0.2c0,0.1,0,0.1,0,0.2l0.4,0v0.3H44v-0.3
			c0,0,0.1,0,0.1,0c0,0,0.1,0,0.1,0c0,0,0-0.1,0.1-0.1c0,0,0-0.1,0-0.2v-1.6c0,0,0-0.1,0-0.1c0,0,0-0.1,0-0.1c0,0,0-0.1,0-0.1
			c0,0,0,0,0-0.1l-0.3,0v-0.3l1.2,0c0.2,0,0.3,0,0.5,0.1c0.1,0,0.3,0.1,0.4,0.2c0.1,0.1,0.2,0.2,0.2,0.3c0.1,0.1,0.1,0.3,0.1,0.4
			c0,0.1,0,0.2-0.1,0.3c0,0.1-0.1,0.2-0.2,0.3c-0.1,0.1-0.2,0.2-0.4,0.2C45.5,41.6,45.4,41.6,45.2,41.6"/>
		<path class="st0" d="M47.8,42.7v-0.3c0,0,0.1,0,0.1,0c0,0,0.1,0,0.1,0c0,0,0-0.1,0.1-0.1c0,0,0-0.1,0-0.2v-1.6c0,0,0-0.1,0-0.1
			c0,0,0-0.1,0-0.1c0,0,0-0.1,0-0.1c0,0,0,0,0-0.1l-0.3,0v-0.3H49v0.3c0,0-0.1,0-0.1,0c0,0-0.1,0-0.1,0c0,0,0,0.1-0.1,0.1
			c0,0,0,0.1,0,0.2V42c0,0,0,0.1,0,0.1c0,0,0,0.1,0,0.1c0,0,0,0.1,0,0.1c0,0,0,0,0,0.1l0.6,0c0.2,0,0.3-0.1,0.4-0.2
			c0.1-0.1,0.1-0.3,0.1-0.5H50l0,1H47.8z"/>
		<path class="st0" d="M52.5,41.3V42c0,0,0,0.1,0,0.1c0,0,0,0.1,0,0.1c0,0,0,0.1,0,0.1c0,0,0,0,0,0.1l0.6,0c0.1,0,0.1,0,0.2,0
			c0.1,0,0.1-0.1,0.2-0.1c0,0,0.1-0.1,0.1-0.2c0-0.1,0-0.2,0-0.3h0.3l0,0.9h-2.2v-0.3c0,0,0.1,0,0.1,0c0,0,0.1,0,0.1,0
			c0,0,0-0.1,0.1-0.1c0,0,0-0.1,0-0.2v-1.6c0,0,0-0.1,0-0.1c0,0,0-0.1,0-0.1c0,0,0-0.1,0-0.1c0,0,0,0,0-0.1l-0.3,0v-0.3h2.1l0,0.8
			h-0.3c0-0.1,0-0.2,0-0.3c0-0.1-0.1-0.1-0.1-0.2c0,0-0.1-0.1-0.2-0.1c-0.1,0-0.1,0-0.2,0l-0.1,0c0,0-0.1,0-0.1,0c0,0-0.1,0-0.1,0
			c0,0,0,0.1-0.1,0.1c0,0,0,0.1,0,0.2v0.6h0.5l0-0.4h0.3v1H53c0-0.1,0-0.2,0-0.2c0,0-0.1-0.1-0.1-0.1c0,0-0.1,0-0.1,0
			c-0.1,0-0.1,0-0.2,0L52.5,41.3z"/>
		<path class="st0" d="M56.5,42.5c0.1,0,0.1,0,0.2,0c0.1,0,0.1,0,0.2-0.1c0,0,0.1-0.1,0.1-0.1c0,0,0-0.1,0-0.2c0-0.1,0-0.1-0.1-0.2
			c0-0.1-0.1-0.1-0.2-0.1c-0.1,0-0.1-0.1-0.2-0.1c-0.1,0-0.2-0.1-0.2-0.1c-0.1-0.1-0.3-0.1-0.4-0.2c-0.1-0.1-0.2-0.1-0.3-0.2
			c-0.1-0.1-0.1-0.2-0.2-0.3c0-0.1-0.1-0.2-0.1-0.4c0-0.1,0-0.1,0-0.2c0-0.1,0-0.1,0.1-0.2c0-0.1,0.1-0.1,0.1-0.2
			c0.1-0.1,0.1-0.1,0.2-0.1c0.1,0,0.2-0.1,0.3-0.1c0.1,0,0.2,0,0.3,0c0.1,0,0.1,0,0.2,0c0.1,0,0.1,0,0.2,0c0.1,0,0.1,0,0.2,0.1
			c0.1,0,0.1,0.1,0.2,0.1h0l0-0.2h0.3v1h-0.3c0-0.2-0.1-0.4-0.2-0.5c-0.1-0.1-0.3-0.2-0.5-0.2c-0.1,0-0.1,0-0.2,0
			c-0.1,0-0.1,0-0.1,0.1c0,0-0.1,0.1-0.1,0.1c0,0,0,0.1,0,0.1c0,0.1,0,0.1,0,0.2c0,0.1,0.1,0.1,0.1,0.1c0.1,0,0.1,0.1,0.2,0.1
			c0.1,0,0.2,0.1,0.3,0.1c0.1,0,0.1,0.1,0.2,0.1c0.1,0,0.1,0.1,0.2,0.1c0.1,0,0.1,0.1,0.2,0.1c0.1,0.1,0.1,0.1,0.2,0.2
			c0,0.1,0.1,0.1,0.1,0.2c0,0.1,0,0.2,0,0.2c0,0.1,0,0.2-0.1,0.3c-0.1,0.1-0.1,0.2-0.2,0.3c-0.1,0.1-0.2,0.1-0.3,0.2
			c-0.1,0-0.3,0.1-0.4,0.1c-0.1,0-0.1,0-0.2,0c-0.1,0-0.1,0-0.2,0c-0.1,0-0.1,0-0.2-0.1c-0.1,0-0.1-0.1-0.2-0.1h0l0,0.2h-0.3v-1h0.3
			c0,0.1,0.1,0.2,0.1,0.3c0,0.1,0.1,0.2,0.2,0.2c0.1,0.1,0.1,0.1,0.2,0.1C56.3,42.4,56.4,42.5,56.5,42.5"/>
		<path class="st0" d="M59.7,41.2c0,0.1,0,0.2,0,0.3c0,0.1,0,0.2,0.1,0.3c0,0.1,0.1,0.2,0.1,0.3c0,0.1,0.1,0.2,0.2,0.2
			c0.1,0.1,0.1,0.1,0.2,0.2c0.1,0,0.2,0.1,0.3,0.1c0.1,0,0.2,0,0.3-0.1c0.1,0,0.1-0.1,0.2-0.1c0.1-0.1,0.1-0.1,0.1-0.2
			c0-0.1,0.1-0.2,0.1-0.2c0-0.1,0-0.2,0.1-0.3c0-0.1,0-0.2,0-0.3c0-0.2,0-0.4,0-0.5c0-0.2-0.1-0.3-0.1-0.4c-0.1-0.1-0.2-0.2-0.3-0.3
			c-0.1-0.1-0.2-0.1-0.4-0.1c-0.1,0-0.2,0-0.3,0.1c-0.1,0-0.1,0.1-0.2,0.1c-0.1,0.1-0.1,0.1-0.1,0.2c0,0.1-0.1,0.2-0.1,0.2
			c0,0.1,0,0.2-0.1,0.3C59.7,41,59.7,41.1,59.7,41.2 M59,41.2c0-0.1,0-0.2,0-0.4c0-0.1,0.1-0.2,0.1-0.3c0.1-0.1,0.1-0.2,0.2-0.3
			c0.1-0.1,0.2-0.2,0.3-0.3c0.1-0.1,0.2-0.1,0.4-0.2c0.1,0,0.3-0.1,0.4-0.1c0.2,0,0.3,0,0.5,0.1c0.1,0,0.3,0.1,0.4,0.2
			c0.1,0.1,0.2,0.2,0.3,0.3c0.1,0.1,0.1,0.2,0.2,0.3c0.1,0.1,0.1,0.2,0.1,0.3c0,0.1,0,0.2,0,0.4c0,0.1,0,0.2,0,0.3
			c0,0.1-0.1,0.2-0.1,0.3c-0.1,0.1-0.1,0.2-0.2,0.3c-0.1,0.1-0.2,0.2-0.3,0.3c-0.1,0.1-0.2,0.1-0.4,0.2c-0.1,0-0.3,0.1-0.4,0.1
			c-0.2,0-0.3,0-0.5-0.1c-0.1,0-0.3-0.1-0.4-0.2c-0.1-0.1-0.2-0.2-0.3-0.3c-0.1-0.1-0.1-0.2-0.2-0.3c0-0.1-0.1-0.2-0.1-0.4
			C59,41.5,59,41.4,59,41.2"/>
		<path class="st0" d="M33.6,18.9H35c0.6,0,1.1-0.1,1.4-0.3c0.3-0.2,0.4-0.4,0.4-0.8c0-0.4-0.1-0.6-0.4-0.8
			c-0.3-0.2-0.7-0.2-1.4-0.2h-1.4V18.9z M33.6,20.8c0,0.3,0,0.5,0.1,0.7c0.1,0.2,0.2,0.3,0.4,0.4H32c0.2-0.1,0.3-0.2,0.4-0.4
			c0.1-0.2,0.1-0.4,0.1-0.7V17c0-0.3,0-0.5-0.1-0.6C32.3,16.2,32.2,16,32,16h3.1c0.6,0,1.1,0,1.4,0.1c0.3,0.1,0.5,0.2,0.7,0.3
			c0.3,0.2,0.5,0.4,0.6,0.6c0.1,0.2,0.2,0.5,0.2,0.8c0,0.7-0.2,1.2-0.7,1.5c-0.5,0.3-1.2,0.5-2.2,0.5h-1.5V20.8z"/>
	</g>
	<polygon class="st0" points="34.5,11.5 35,12.5 36.2,12.7 35.4,13.5 35.5,14.6 34.5,14.1 33.5,14.6 33.7,13.5 32.9,12.7 34,12.5 	
		"/>
	<polygon class="st0" points="34.5,26.3 34,25.3 32.9,25.1 33.7,24.3 33.5,23.2 34.5,23.7 35.5,23.2 35.4,24.3 36.2,25.1 35,25.3 	
		"/>
	<polygon class="st0" points="27.3,18.9 28.3,18.4 28.5,17.3 29.3,18.1 30.4,17.9 29.9,18.9 30.4,19.9 29.3,19.8 28.5,20.6 
		28.3,19.4 	"/>
	<polygon class="st0" points="41.9,18.9 40.9,19.4 40.8,20.6 40,19.8 38.8,19.9 39.4,18.9 38.8,17.9 40,18.1 40.8,17.3 40.9,18.4 	
		"/>
	<g>
		<path class="st0" d="M29.7,16.1c-0.2,0-0.4-0.2-0.4-0.4v-1.5c0-0.2,0.2-0.4,0.4-0.4h1.5c0.2,0,0.4,0.2,0.4,0.4L29.7,16.1z"/>
		<path class="st0" d="M39.9,15.7c0,0.2-0.2,0.4-0.4,0.4l-1.9-1.9c0-0.2,0.2-0.4,0.4-0.4h1.5c0.2,0,0.4,0.2,0.4,0.4V15.7z"/>
		<path class="st0" d="M29.9,12.8l0.8-1.2c0.1-0.2,0.3-0.2,0.4,0l0.5,1.2"/>
		<path class="st0" d="M33.5,11.2l-1.4-0.3c-0.2,0-0.3,0.1-0.2,0.3l0.5,1.2"/>
		<path class="st0" d="M26.9,17.8l-0.3-1.4c0-0.2,0.1-0.3,0.3-0.2l1.2,0.5"/>
		<path class="st0" d="M28.4,14.2l-1.2,0.8c-0.2,0.1-0.2,0.3,0,0.4l1.2,0.5"/>
		<path class="st0" d="M39.3,12.8l-0.8-1.2c-0.1-0.2-0.3-0.2-0.4,0l-0.5,1.2"/>
		<path class="st0" d="M35.6,11.2l1.4-0.3c0.2,0,0.3,0.1,0.2,0.3l-0.5,1.2"/>
		<path class="st0" d="M42.3,17.8l0.3-1.4c0-0.2-0.1-0.3-0.3-0.2l-1.2,0.5"/>
		<path class="st0" d="M40.8,14.2l1.2,0.8c0.2,0.1,0.2,0.3,0,0.4l-1.2,0.5"/>
		<path class="st0" d="M29.7,21.8c-0.2,0-0.4,0.2-0.4,0.4v1.5c0,0.2,0.2,0.4,0.4,0.4h1.5c0.2,0,0.4-0.2,0.4-0.4L29.7,21.8z"/>
		<path class="st0" d="M39.9,22.2c0-0.2-0.2-0.4-0.4-0.4l-1.9,1.9c0,0.2,0.2,0.4,0.4,0.4h1.5c0.2,0,0.4-0.2,0.4-0.4V22.2z"/>
		<path class="st0" d="M29.9,25.1l0.8,1.2c0.1,0.2,0.3,0.2,0.4,0l0.5-1.2"/>
		<path class="st0" d="M33.5,26.6l-1.4,0.3c-0.2,0-0.3-0.1-0.2-0.3l0.5-1.2"/>
		<path class="st0" d="M26.9,20l-0.3,1.4c0,0.2,0.1,0.3,0.3,0.2l1.2-0.5"/>
		<path class="st0" d="M28.4,23.7l-1.2-0.8c-0.2-0.1-0.2-0.3,0-0.4l1.2-0.5"/>
		<path class="st0" d="M39.3,25.1l-0.8,1.2c-0.1,0.2-0.3,0.2-0.4,0l-0.5-1.2"/>
		<path class="st0" d="M35.6,26.6l1.4,0.3c0.2,0,0.3-0.1,0.2-0.3l-0.5-1.2"/>
		<path class="st0" d="M42.3,20l0.3,1.4c0,0.2-0.1,0.3-0.3,0.2l-1.2-0.5"/>
		<path class="st0" d="M40.8,23.7l1.2-0.8c0.2-0.1,0.2-0.3,0-0.4l-1.2-0.5"/>
	</g>
	<polygon class="st0" points="59.2,26.9 32.8,3.6 16.2,27 13.7,27 32.4,0.5 62.3,26.9 	"/>
</g>
</svg>
